<svg id="Слой_1" data-name="Слой 1" xmlns="http://www.w3.org/2000/svg" viewBox="0 0 18.26 15.05"><defs><style>.cls-1{fill:#fff;}</style></defs><path class="cls-1" d="M291.1,418.31l.17.18,2.22,2.22a.71.71,0,0,1,.25.65.69.69,0,0,1-.45.55.67.67,0,0,1-.71-.16c-.24-.24-.47-.48-.71-.71L289,418.18a.7.7,0,0,1,0-1.14l3.5-3.51a.68.68,0,0,1,.73-.22.63.63,0,0,1,.49.54.7.7,0,0,1-.24.65l-2.2,2.2-.18.16v.06h10a5.7,5.7,0,0,1,1.32,11.27,6.53,6.53,0,0,1-1.24.13H291.3a.68.68,0,1,1,0-1.36h9.88a4.18,4.18,0,0,0,3.13-1.27,4.32,4.32,0,0,0-2.37-7.33,5.25,5.25,0,0,0-.79-.06h-10Z" transform="translate(-288.72 -413.28)"/></svg>