<svg id="Слой_1" data-name="Слой 1" xmlns="http://www.w3.org/2000/svg" viewBox="0 0 186.03 77.17"><defs><style>.cls-1{fill:#b55da0;}</style></defs><path class="cls-1" d="M262.83,431.69v13.57h-7.95v12.62H240.15V445.26H205.06V431.69l24.7-48h15.69l-24.6,48h19.3V414.1h14.73v17.59Z" transform="translate(-205.06 -382.19)"/><path class="cls-1" d="M297.7,459.36q-13.87,0-21.78-10.55t-7.9-28q0-17.49,7.9-28t21.78-10.55q14,0,21.84,10.55t7.84,28q0,17.49-7.84,28T297.7,459.36Zm-11.23-20.51A13.3,13.3,0,0,0,309,438.8q3.87-6.26,3.87-18T309,402.65a12.47,12.47,0,0,0-11.29-6.25,12.35,12.35,0,0,0-11.23,6.25q-3.83,6.25-3.82,18.13T286.47,438.85Z" transform="translate(-205.06 -382.19)"/><path class="cls-1" d="M391.09,431.69v13.57h-7.95v12.62H368.4V445.26H333.32V431.69l24.7-48H373.7l-24.59,48H368.4V414.1h14.74v17.59Z" transform="translate(-205.06 -382.19)"/></svg>