<svg xmlns="http://www.w3.org/2000/svg"
 xmlns:xlink="http://www.w3.org/1999/xlink"
 width="18px" height="14px"  viewBox="0 0 18 14">
<path fill-rule="evenodd"  fill="#0a5498"
 d="M1.5,0.99996185 C1.5,0.99996185 16.5,0.99996185 16.5,0.99996185 C16.776154,0.99996185 17.0,1.2237473 17.0,1.5000992 C17.0,1.7762299 16.776154,2.0000153 16.5,2.0000153 C16.5,2.0000153 1.5,2.0000153 1.5,2.0000153 C1.2238464,2.0000153 1.0,1.7762299 1.0,1.5000992 C1.0,1.2237473 1.2238464,0.99996185 1.5,0.99996185 ZM1.5,6.0 C1.5,6.0 16.5,6.0 16.5,6.0 C16.776154,6.0 17.0,6.2237854 17.0,6.499916 C17.0,6.7760468 16.776154,7.000061 16.5,7.000061 C16.5,7.000061 1.5,7.000061 1.5,7.000061 C1.2238464,7.000061 1.0,6.7760468 1.0,6.499916 C1.0,6.2237854 1.2238464,6.0 1.5,6.0 ZM1.5,11.000046 C1.5,11.000046 16.5,11.000046 16.5,11.000046 C16.776154,11.000046 17.0,11.223831 17.0,11.499962 C17.0,11.776085 16.776154,12.000099 16.5,12.000099 C16.5,12.000099 1.5,12.000099 1.5,12.000099 C1.2238464,12.000099 1.0,11.776085 1.0,11.499962 C1.0,11.223831 1.2238464,11.000046 1.5,11.000046 ZM1.5,2.0000153 C1.5,2.0000153 16.5,2.0000153 16.5,2.0000153 C16.776154,2.0000153 17.0,2.2238007 17.0,2.4999313 C17.0,2.7760544 16.776154,3.0000687 16.5,3.0000687 C16.5,3.0000687 1.5,3.0000687 1.5,3.0000687 C1.2238464,3.0000687 1.0,2.7760544 1.0,2.4999313 C1.0,2.2238007 1.2238464,2.0000153 1.5,2.0000153 ZM1.5,7.000061 C1.5,7.000061 16.5,7.000061 16.5,7.000061 C16.776154,7.000061 17.0,7.223839 17.0,7.4999695 C17.0,7.7761 16.776154,8.000114 16.5,8.000114 C16.5,8.000114 1.5,8.000114 1.5,8.000114 C1.2238464,8.000114 1.0,7.7761 1.0,7.4999695 C1.0,7.223839 1.2238464,7.000061 1.5,7.000061 ZM1.5,12.000099 C1.5,12.000099 16.5,12.000099 16.5,12.000099 C16.776154,12.000099 17.0,12.223885 17.0,12.500015 C17.0,12.776138 16.776154,12.999924 16.5,12.999924 C16.5,12.999924 1.5,12.999924 1.5,12.999924 C1.2238464,12.999924 1.0,12.776138 1.0,12.500015 C1.0,12.223885 1.2238464,12.000099 1.5,12.000099 Z"/>
</svg>