<svg id="Слой_1" data-name="Слой 1" xmlns="http://www.w3.org/2000/svg" viewBox="0 0 15.72 13.1"><defs><style>.cls-1{fill:#fff;}</style></defs><path class="cls-1" d="M300.48,423.88l-1.5,1.5v-4.31a.65.65,0,0,0-.65-.65.66.66,0,0,0-.66.65v4.31l-1.5-1.5a.65.65,0,0,0-.92.92l2.61,2.62a.64.64,0,0,0,.22.14.53.53,0,0,0,.25.05.56.56,0,0,0,.25-.05.6.6,0,0,0,.21-.14l2.62-2.62a.65.65,0,0,0-.93-.92Z" transform="translate(-290.47 -414.52)"/><path class="cls-1" d="M305.47,420.12a4,4,0,0,0-3.21-1.67h-.35a5.89,5.89,0,1,0-10,5.86.65.65,0,0,0,.92.06.66.66,0,0,0,.06-.93,4.58,4.58,0,1,1,7.86-4.17.66.66,0,0,0,.64.49h.83a2.62,2.62,0,0,1,1.5,4.76.65.65,0,0,0-.16.91.66.66,0,0,0,.54.28.63.63,0,0,0,.37-.12,3.94,3.94,0,0,0,1-5.47Z" transform="translate(-290.47 -414.52)"/></svg>