<svg id="Слой_1" data-name="Слой 1" xmlns="http://www.w3.org/2000/svg" viewBox="0 0 18.07 18.07"><defs><style>.cls-1{fill:#232f5d;}.cls-2{fill:#fff;}.cls-3{fill:#c91430;}</style></defs><path class="cls-1" d="M301.14,429.27a9.08,9.08,0,0,0,4-2.9l-4-2Z" transform="translate(-289.04 -411.74)"/><path class="cls-1" d="M295,412.29a9,9,0,0,0-4,2.89l4,2Z" transform="translate(-289.04 -411.74)"/><path class="cls-1" d="M305.16,415.18a9,9,0,0,0-4-2.89v4.9Z" transform="translate(-289.04 -411.74)"/><path class="cls-1" d="M291,426.37a9.08,9.08,0,0,0,4,2.9v-4.91Z" transform="translate(-289.04 -411.74)"/><path class="cls-2" d="M301.14,417.71h.32l4.07-2c-.12-.17-.24-.34-.37-.5l-4,2Z" transform="translate(-289.04 -411.74)"/><path class="cls-2" d="M301.14,423.84v.52l4,2c.13-.16.25-.32.37-.5l-4.07-2Z" transform="translate(-289.04 -411.74)"/><polygon class="cls-2" points="15.16 5.97 17.11 5 17.11 5 15.16 5.97 15.16 5.97"/><path class="cls-3" d="M306.56,417.71a8.29,8.29,0,0,0-.41-1l-1.95,1Z" transform="translate(-289.04 -411.74)"/><path class="cls-2" d="M295,423.84h-.32l-4.07,2c.12.18.24.34.37.5l4-2Z" transform="translate(-289.04 -411.74)"/><path class="cls-2" d="M295,417.71v-.52l-4-2c-.13.16-.25.33-.37.5l4.07,2Z" transform="translate(-289.04 -411.74)"/><path class="cls-3" d="M301.46,423.84l4.07,2a9.2,9.2,0,0,0,.62-1.06l-1.95-1Z" transform="translate(-289.04 -411.74)"/><path class="cls-3" d="M290,416.74a8.29,8.29,0,0,0-.41,1H292Z" transform="translate(-289.04 -411.74)"/><path class="cls-3" d="M304.2,417.71l1.95-1a9.2,9.2,0,0,0-.62-1.06l-4.07,2Z" transform="translate(-289.04 -411.74)"/><path class="cls-3" d="M306.15,424.81a8.29,8.29,0,0,0,.41-1H304.2Z" transform="translate(-289.04 -411.74)"/><path class="cls-3" d="M292,423.84l-1.95,1a9.2,9.2,0,0,0,.62,1.06l4.07-2Z" transform="translate(-289.04 -411.74)"/><path class="cls-3" d="M289.59,423.84a8.29,8.29,0,0,0,.41,1l1.95-1Z" transform="translate(-289.04 -411.74)"/><path class="cls-3" d="M294.69,417.71l-4.07-2a9.2,9.2,0,0,0-.62,1.06l1.95,1Z" transform="translate(-289.04 -411.74)"/><path class="cls-2" d="M296.24,417.8v-5.87a8.31,8.31,0,0,0-1.23.36v4.9Z" transform="translate(-289.04 -411.74)"/><path class="cls-2" d="M306.92,418.94c0-.16-.08-.32-.12-.47l-.94.47Z" transform="translate(-289.04 -411.74)"/><path class="cls-2" d="M289.23,422.61c0,.16.08.32.12.47l.94-.47Z" transform="translate(-289.04 -411.74)"/><path class="cls-2" d="M306.8,423.08c0-.15.09-.31.12-.47h-1.06Z" transform="translate(-289.04 -411.74)"/><path class="cls-2" d="M301.14,417.19v-4.9a8.31,8.31,0,0,0-1.23-.36v5.87Z" transform="translate(-289.04 -411.74)"/><path class="cls-2" d="M295,424.36v4.91a9.69,9.69,0,0,0,1.23.35v-5.87Z" transform="translate(-289.04 -411.74)"/><path class="cls-2" d="M299.91,423.75v5.87a9.69,9.69,0,0,0,1.23-.35v-4.91Z" transform="translate(-289.04 -411.74)"/><path class="cls-2" d="M289.35,418.47c0,.15-.09.31-.12.47h1.06Z" transform="translate(-289.04 -411.74)"/><polygon class="cls-2" points="12.42 5.97 12.1 5.97 12.1 5.45 10.87 6.06 10.87 6.74 12.42 5.97"/><polygon class="cls-2" points="7.2 6.06 5.97 5.45 5.97 5.97 5.65 5.97 7.2 6.74 7.2 6.06"/><polygon class="cls-2" points="10.87 12.01 12.1 12.62 12.1 12.1 12.42 12.1 10.87 11.32 10.87 12.01"/><path class="cls-2" d="M301.75,418.94h4.11l.94-.47c-.07-.26-.15-.51-.24-.76H304.2Z" transform="translate(-289.04 -411.74)"/><path class="cls-2" d="M304.49,422.61l2.13,1.07q.11-.3.18-.6l-.94-.47Z" transform="translate(-289.04 -411.74)"/><path class="cls-2" d="M291.66,422.61h-1.37l-.94.47q.07.3.18.6Z" transform="translate(-289.04 -411.74)"/><polygon class="cls-2" points="5.65 12.1 5.97 12.1 5.97 12.62 7.2 12.01 7.2 11.32 5.65 12.1"/><polygon class="cls-2" points="12.71 7.2 15.16 5.97 15.16 5.97 12.71 7.2 12.71 7.2"/><path class="cls-2" d="M291.66,418.94l-2.13-1.07q-.11.3-.18.6l.94.47Z" transform="translate(-289.04 -411.74)"/><polygon class="cls-2" points="10.87 7.2 12.71 7.2 15.16 5.97 12.42 5.97 10.87 6.74 10.87 7.2"/><polygon class="cls-2" points="7.2 6.74 5.65 5.97 2.9 5.97 5.36 7.2 7.2 7.2 7.2 6.74"/><path class="cls-2" d="M291.66,418.94h2.74L292,417.71h-2.36a1.66,1.66,0,0,0-.06.16Z" transform="translate(-289.04 -411.74)"/><polygon class="cls-2" points="7.2 10.87 5.36 10.87 2.9 12.1 5.65 12.1 7.2 11.32 7.2 10.87"/><polygon class="cls-2" points="10.87 11.32 12.42 12.1 15.16 12.1 12.71 10.87 10.87 10.87 10.87 11.32"/><path class="cls-2" d="M294.4,422.61h-2.74l-2.13,1.07a1,1,0,0,0,.06.16H292Z" transform="translate(-289.04 -411.74)"/><path class="cls-2" d="M304.49,422.61h-2.74l2.45,1.23h2.36l.06-.16Z" transform="translate(-289.04 -411.74)"/><path class="cls-3" d="M298.07,422.83h0v7h0a9.26,9.26,0,0,0,1.84-.19v-5.87Z" transform="translate(-289.04 -411.74)"/><path class="cls-3" d="M296.24,423.75v5.87a9.16,9.16,0,0,0,1.83.19v-7Z" transform="translate(-289.04 -411.74)"/><path class="cls-3" d="M290.29,418.94h-1.06a9.26,9.26,0,0,0-.19,1.84H294Z" transform="translate(-289.04 -411.74)"/><path class="cls-3" d="M302.19,420.78h4.92a9.26,9.26,0,0,0-.19-1.84h-1.06Z" transform="translate(-289.04 -411.74)"/><path class="cls-3" d="M305.86,422.61h1.06a9.16,9.16,0,0,0,.19-1.83h-4.92Z" transform="translate(-289.04 -411.74)"/><path class="cls-3" d="M298.07,418.72v-7a9.16,9.16,0,0,0-1.83.19v5.87Z" transform="translate(-289.04 -411.74)"/><path class="cls-3" d="M298.07,418.72l1.84-.92v-5.87a9.26,9.26,0,0,0-1.84-.19h0v7Z" transform="translate(-289.04 -411.74)"/><path class="cls-3" d="M294,420.78H289a9.16,9.16,0,0,0,.19,1.83h1.06Z" transform="translate(-289.04 -411.74)"/><polygon class="cls-3" points="9.03 7.66 9.03 6.98 7.2 6.06 7.2 6.74 9.03 7.66"/><polygon class="cls-3" points="9.03 9.03 9.03 9.03 12.71 7.2 12.71 7.2 9.03 9.03"/><polygon class="cls-3" points="13.15 9.03 11.78 9.03 15.45 10.87 16.82 10.87 13.15 9.03"/><polygon class="cls-3" points="9.03 7.66 10.87 6.74 10.87 6.06 9.03 6.98 9.03 6.98 9.03 7.66 9.03 7.66"/><polygon class="cls-3" points="11.78 9.03 13.15 9.03 16.82 7.2 12.71 7.2 9.03 9.03 11.78 9.03"/><polygon class="cls-3" points="7.2 11.32 7.2 12.01 9.03 11.09 9.03 10.4 7.2 11.32"/><polygon class="cls-3" points="9.03 10.4 9.03 10.4 9.03 11.09 9.03 11.09 10.87 12.01 10.87 11.32 9.03 10.4"/><polygon class="cls-3" points="2.62 7.2 1.24 7.2 4.92 9.03 6.29 9.03 2.62 7.2"/><polygon class="cls-3" points="4.92 9.03 1.24 10.87 2.62 10.87 6.29 9.03 4.92 9.03"/><polygon class="cls-3" points="9.03 9.03 9.03 9.03 9.03 9.03 9.03 9.03"/><polygon class="cls-3" points="9.03 9.03 9.03 9.03 9.03 9.03 9.03 9.03"/><polygon class="cls-3" points="9.03 9.03 9.03 9.03 9.03 9.03 9.03 9.03 9.03 9.03"/><polygon class="cls-3" points="10.87 7.2 10.87 6.74 9.03 7.66 9.03 7.66 9.03 9.03 12.71 7.2 10.87 7.2"/><polygon class="cls-3" points="9.03 9.03 9.03 7.66 7.2 6.74 7.2 7.2 5.36 7.2 9.03 9.03 9.03 9.03"/><polygon class="cls-3" points="7.2 11.32 9.03 10.4 9.03 9.03 5.36 10.87 7.2 10.87 7.2 11.32"/><polygon class="cls-3" points="9.03 9.03 9.03 9.03 12.71 10.87 15.45 10.87 11.78 9.03 9.03 9.03"/><polygon class="cls-3" points="9.03 9.03 9.03 10.4 9.03 10.4 10.87 11.32 10.87 10.87 12.71 10.87 9.03 9.03 9.03 9.03"/><polygon class="cls-3" points="9.03 9.03 5.36 7.2 2.62 7.2 6.29 9.03 9.03 9.03"/><polygon class="cls-3" points="9.03 9.03 9.03 9.03 6.29 9.03 2.62 10.87 5.36 10.87 9.03 9.03 9.03 9.03"/></svg>