<svg id="Слой_1" data-name="Слой 1" xmlns="http://www.w3.org/2000/svg" viewBox="0 0 13.53 11.07"><defs><style>.cls-1{fill:#fff;}</style></defs><path class="cls-1" d="M303,415.24h-9.85a1.85,1.85,0,0,0-1.84,1.85v7.38a1.85,1.85,0,0,0,1.84,1.84H303a1.85,1.85,0,0,0,1.84-1.84v-7.38A1.85,1.85,0,0,0,303,415.24Zm-9.85,1.23H303a.6.6,0,0,1,.54.34l-5.47,3.83-5.46-3.83A.6.6,0,0,1,293.15,416.47Zm10.46,8a.61.61,0,0,1-.61.61h-9.85a.61.61,0,0,1-.61-.61v-6.2l5.18,3.63a.66.66,0,0,0,.35.11.66.66,0,0,0,.36-.11l5.18-3.63Z" transform="translate(-291.31 -415.24)"/></svg>