<svg id="Слой_1" data-name="Слой 1" xmlns="http://www.w3.org/2000/svg" viewBox="0 0 57.93 57.96"><defs><style>.cls-1{fill:#0b5599;}</style></defs><path class="cls-1" d="M311.56,401.8c-.47,0-.95,0-1.43,0A28.28,28.28,0,0,0,291,409.2a29.54,29.54,0,0,0-9.62,20.68,28.07,28.07,0,0,0,7.67,20.49,29.17,29.17,0,0,0,20.13,9.33,29.06,29.06,0,0,0,30.07-27.35,29,29,0,0,0-27.7-30.55Zm25.59,28.88a26.77,26.77,0,0,1-26.83,26.88h0a26.81,26.81,0,1,1,0-53.62h0A26.81,26.81,0,0,1,337.15,430.68Z" transform="translate(-281.37 -401.77)"/><path class="cls-1" d="M306.28,441.26v-2.55l2.32-.21V428.26l-2.3-.16v-2.65h5.52v13l2.46.24v2.54Z" transform="translate(-281.37 -401.77)"/><circle class="cls-1" cx="28.85" cy="18.2" r="1.62"/></svg>