<svg id="Слой_1" data-name="Слой 1" xmlns="http://www.w3.org/2000/svg" viewBox="0 0 9.33 9.33"><defs><style>.cls-1{fill:#0c5599;}</style></defs><path class="cls-1" d="M306.67,427.73v6.84h6.85v-2.84c0-.36.19-.57.49-.57a.46.46,0,0,1,.49.46c0,1.17,0,2.33,0,3.5a.47.47,0,0,1-.52.45h-7.71c-.43,0-.6-.16-.6-.59v-7.66c0-.41.17-.58.59-.58H309a.49.49,0,0,1,.56.48c0,.3-.2.5-.55.51h-2.38Z" transform="translate(-305.67 -426.24)"/><path class="cls-1" d="M312.53,427.71v-.88c0-.36.21-.59.51-.59a.53.53,0,0,1,.5.58v.83s0,0,0,.06h.85a.51.51,0,1,1,0,1c-.28,0-.56,0-.88,0v.69c0,.1,0,.2,0,.3a.51.51,0,0,1-.49.48.5.5,0,0,1-.5-.49c0-.32,0-.63,0-1-.33,0-.64,0-1,0a.5.5,0,0,1-.47-.28.4.4,0,0,1,0-.49.91.91,0,0,1,.45-.22C311.91,427.69,312.21,427.71,312.53,427.71Z" transform="translate(-305.67 -426.24)"/></svg>