<svg id="Слой_1" data-name="Слой 1" xmlns="http://www.w3.org/2000/svg" viewBox="0 0 18.24 19.04"><defs><style>.cls-1{fill:#fff;}</style></defs><rect class="cls-1" x="3.97" y="8.73" width="7.14" height="1.59"/><rect class="cls-1" x="3.97" y="5.55" width="3.17" height="1.59"/><polygon class="cls-1" points="15.86 15.07 15.86 12.69 14.28 12.69 14.28 15.07 11.9 15.07 11.9 16.66 14.28 16.66 14.28 19.04 15.86 19.04 15.86 16.66 18.24 16.66 18.24 15.07 15.86 15.07"/><path class="cls-1" d="M313.12,426.15a2.34,2.34,0,0,1,2.38,2.38v4h1.59v-4a4,4,0,0,0-3.26-3.89,4,4,0,0,0-3.88-3.25h-8.73v19h11.11v-1.58h-9.52V423H310a2.34,2.34,0,0,1,2.38,2.38v.8Z" transform="translate(-301.22 -421.39)"/></svg>